/* XPM */
static char *_748e7a4988a47cfff7325b9a1e96068sjPBQgwTDWDQpZ1o[] = {
/* columns rows colors chars-per-pixel */
"64 64 5 1 ",
"  c #18215D",
". c #503197",
"X c #E17CB7",
"o c #BF53C9",
"O c #EFAAA5",
/* pixels */
"OOOOOOOOOOOOOOOOOOOOOOOOOOOOOOOOOOOOOOOOOOOOOOOOOOOOOOOOOOOO    ",
"OOOOOOOOOOOOOOOOOOOOOOOOOOOOOOOOOOOOOOOOOOOOOOOOOOOOOOOOOOOO    ",
"OOOOOOOOOOOOOOOOOOOOOOOOOOOOOOOOOOOOOOOOOOOOOOOOOOOOOOOOOOOO    ",
"OOOOOOOOOOOOOOOOOOOOOOOOOOOOOOOOOOOOOOOOOOOOOOOOOOOOOOOOOOOO    ",
"OOOO........oooooooooooooooooooooooooooooooooooooooo........    ",
"OOOO........oooooooooooooooooooooooooooooooooooooooo........    ",
"OOOO........oooooooooooooooooooooooooooooooooooooooo........    ",
"OOOO........oooooooooooooooooooooooooooooooooooooooo........    ",
"OOOO....XXXXooooooooooooooooooooooooooooooooooooooooXXXX....    ",
"OOOO....XXXXooooooooooooooooooooooooooooooooooooooooXXXX....    ",
"OOOO....XXXXooooooooooooooooooooooooooooooooooooooooXXXX....    ",
"OOOO....XXXXooooooooooooooooooooooooooooooooooooooooXXXX....    ",
"OOOOoooooooooooooooooooooooooooooooooooooooooooooooooooooooo    ",
"OOOOoooooooooooooooooooooooooooooooooooooooooooooooooooooooo    ",
"OOOOooooooooooooooooooooooo..........ooooooooooooooooooooooo    ",
"OOOOoooooooooooooooooooo......oo........oooooooooooooooooooo    ",
"OOOOooooooooooooooooooo....oo.oo.........ooooooooooooooooooo    ",
"OOOOooooooooooooooooo......ooOooOOOO.......ooooooooooooooooo    ",
"OOOOoooooooooooooooo......OooOooOOOOOO......oooooooooooooooo    ",
"OOOOooooooooooooooo.....OOOooOooOOOOOOOO.....ooooooooooooooo    ",
"OOOOoooooooooooooo.....OOOOooOooOOOOOOOOO.....oooooooooooooo    ",
"OOOOooooooooooooo.....OOOOOooooooooooOOOOO.....ooooooooooooo    ",
"OOOOoooooooooooo.....OOOOoooooooooooooOOOOO.....oooooooooooo    ",
"OOOOoooooooooooo.....OOOOooooOooOOOOooOOOOO.....oooooooooooo    ",
"OOOOooooooooooo.....OOOOoooooOooOOOOOOOOOOOO.....ooooooooooo    ",
"OOOOooooooooooo.....OOOoooOooOooOOOOOOOOOOOO.....ooooooooooo    ",
"OOOOoooooooooo.....OOOoooOOooOooOOOOOOOOOOOOO.....oooooooooo    ",
"OOOOoooooooooo.....OOOoooOOooOooOOOOOOOOOOOOO.....oooooooooo    ",
"OOOOoooooooooo....OOOOoooOOooooooooOOOOOOOOOOO....oooooooooo    ",
"OOOOooooooooo.....OOOOooooooooooooooOOOOOOOOOO.....ooooooooo    ",
"OOOOooooooooo.....OOOOOooooooOooOoooOOOOOOOOOO.....ooooooooo    ",
"OOOOooooooooo.....OOOOOOOOOooOooOOooOOOOOOOOOO.....ooooooooo    ",
"OOOOooooooooo.....OOOOOOOOOooOooOOoooOOOOOOOOO.....ooooooooo    ",
"OOOOooooooooo.....OOOOOOOOOooOooOOoooOOOOOOOOO.....ooooooooo    ",
"OOOOooooooooo.....OOOOOOOOOooOooOOOooOOOOOOOOO.....ooooooooo    ",
"OOOOooooooooo.....OOOOOOOOoooOooOOOooOOOOOOOOO.....ooooooooo    ",
"OOOOooooooooo.....OOOOOOOOoooOooOOOooOOOOOOOOO.....ooooooooo    ",
"OOOOooooooooo.....OOOOOOOOooOOooOOoooOOOOOOOOO.....ooooooooo    ",
"OOOOoooooooooo.....OOOOOOOooOOooOooooOOOOOOOO.....oooooooooo    ",
"OOOOoooooooooo.....OOOOOOOooOOooOoooOOOOOOOOO.....oooooooooo    ",
"OOOOoooooooooo......OOOOOOooOOoooooOOOOOOOOO......oooooooooo    ",
"OOOOooooooooooo.....OOOoooooooooooOOOOOOOOOO.....ooooooooooo    ",
"OOOOooooooooooo......OOoooooooooOOOOOOOOOOO......ooooooooooo    ",
"OOOOoooooooooooo.....OOOOOooOOooOOOOOOOOOOO.....oooooooooooo    ",
"OOOOoooooooooooo......OOOOooOOooOOOOOOOOOO......oooooooooooo    ",
"OOOOooooooooooooo......OOOooOOooOOOOOOOOO......ooooooooooooo    ",
"OOOOoooooooooooooo......OOOOOOoooOOOOOOO......oooooooooooooo    ",
"OOOOooooooooooooooo.......OOOOOooOOOOO.......ooooooooooooooo    ",
"OOOOoooooooooooooooo........OOOooOOO........oooooooooooooooo    ",
"OOOOooooooooooooooooo..........oo..........ooooooooooooooooo    ",
"OOOOooooooooooooooooooo..................ooooooooooooooooooo    ",
"OOOOoooooooooooooooooooo................oooooooooooooooooooo    ",
"OOOO....XXXXooooooooooooooo..........oooooooooooooooXXXX....    ",
"OOOO....XXXXooooooooooooooooooooooooooooooooooooooooXXXX....    ",
"OOOO....XXXXooooooooooooooooooooooooooooooooooooooooXXXX....    ",
"OOOO....XXXXooooooooooooooooooooooooooooooooooooooooXXXX....    ",
"OOOO........oooooooooooooooooooooooooooooooooooooooo........    ",
"OOOO........oooooooooooooooooooooooooooooooooooooooo........    ",
"OOOO........oooooooooooooooooooooooooooooooooooooooo........    ",
"OOOO........oooooooooooooooooooooooooooooooooooooooo........    ",
"                                                                ",
"                                                                ",
"                                                                ",
"                                                                "
};
