/* XPM */
static char *abf26002ab944531e11054cb506a456eAKU54AjDb40qL4iC[] = {
/* columns rows colors chars-per-pixel */
"64 64 7 1 ",
"  c #130208",
". c #09103E",
"X c #18215D",
"o c #503197",
"O c #E17CB7",
"+ c #BF53C9",
"@ c #EFAAA5",
/* pixels */
"@@@@@@@@@@@@@@@@@@@@@@@@@@@@@@@@@@@@@@@@@@@@@@@@@@@@@@@@@@XXXXXX",
"@@@@@@@@@@@@@@@@@@@@@@@@@@@@@@@@@@@@@@@@@@@@@@@@@@@@@@@@@@XXXXXX",
"@@++++++++++++++++++++++++++++++++++++++++++++++++++++++++ooooXX",
"@@++++++++++++++++++++++++++++++++++++++++++++++++++++++++ooooXX",
"@@++++++++++++++++++++++++++++++++++++++++++++++++++++++++ooooXX",
"@@++++++++++++++++++++++++++++++++++++++++++++++++++++++++ooooXX",
"@@++++XXXXXXXXXXXX++++OOOOoooooo++++++OOOOXXXXXXXXXXXXXXXXooooXX",
"@@++++XXXXXXXXXXXX++++OOOOoooooo++++++OOOOXXXXXXXXXXXXXXXXooooXX",
"@@++++XXXXXXXXXXXX++++OOOOoooooo++++++OOOOXXXXXXXXXXXXXXXXooooXX",
"@@++++XXXXXXXXXXXX++++OOOOoooooo++++++OOOOXXXXXXXXXXXXXXXXooooXX",
"@@++++XXXXOOOOoo++OOOOoooo++++++++++++OOOOOOOOoo++OOOOXXXXooooXX",
"@@++++XXXXOOOOoo++OOOOoooo++++++++++++OOOOOOOOoo++OOOOXXXXooooXX",
"@@++++XXXXOOOOoo++OOOOoooo++++++++++++OOOOOOOOoo++OOOOXXXXooooXX",
"@@++++XXXXOOOOoo++OOOOoooo++++++++++++OOOOOOOOoo++OOOOXXXXooooXX",
"@@++++++++OOOOoo++++++++++++++++++++++OOOOOOOOoo++++++OOOOooooXX",
"@@++++++++OOOOoo++++++++++++++++++++++OOOOOOOOoo++++++OOOOooooXX",
"@@++++++++OOOOooOOOOOOOOOOOOOOOOOOOOOO++++++++oo++++++++++ooooXX",
"@@++++++++OOOOooOOOOOOOOOOOOOOOOOOOOOO++++++++oo++++++++++ooooXX",
"@@++++++++OOOO++................................++++++++++ooooXX",
"@@++++++++OOOO++................................++++++++++ooooXX",
"@@++++++++OOOO++................................++++++++++ooooXX",
"@@++++++++OOOO++................................++++++++++ooooXX",
"@@++++OOOO++++..XXXXXXXXXXXXXXXXXXXXXXXXXXXXXXXX..OOOOOOOOooooXX",
"@@++++OOOO++++..XXXXXXXXXXXXXXXXXXXXXXXXXXXXXXXX..OOOOOOOOooooXX",
"@@++++OOOO++++..XXXXXXXXXXXXXXXXXXXXXXXXXXXXXXXX..OOOOOOOOooooXX",
"@@++++OOOO++++..XXXXXXXXXXXXXXXXXXXXXXXXXXXXXXXX..OOOOOOOOooooXX",
"@@++++oooooooo..XXXXXXXXXXXXXXXXXXXXXXXXXXXXXXXX..ooooooooooooXX",
"@@++++oooooooo..XXXXXXXXXXXXXXXXXXXXXXXXXXXXXXXX..ooooooooooooXX",
"@@++++oooooooo..XXXXXXXXXXXXXXXXXXXXXXXXXXXXXXXX..ooooooooooooXX",
"@@++++oooooooo..XXXXXXXXXXXXXXXXXXXXXXXXXXXXXXXX..ooooooooooooXX",
"@@++++++++OOOO..XXXXXXXXXXXXXXXXXXXXXXXXXXXXXXXX..++++OOOOooooXX",
"@@++++++++OOOO..XXXXXXXXXXXXXXXXXXXXXXXXXXXXXXXX..++++OOOOooooXX",
"@@++++++++OOOO..XXooooXXXXooooXXooXXXXooooXXXXXX..++++OOOOooooXX",
"@@++++++++OOOO..XXooooXXXXooooXXooXXXXooooXXXXXX..++++OOOOooooXX",
"@@++++OOOO++++..oo....oooo....oo..oooo....ooooXX..OOOO++++ooooXX",
"@@++++OOOO++++..oo....oooo....oo..oooo....ooooXX..OOOO++++ooooXX",
"@@++++OOOO++++..oo....oooo....oo..oooo....ooooXX..OOOO++++ooooXX",
"@@++++OOOO++++..oo....oooo....oo..oooo....ooooXX..OOOO++++ooooXX",
"@@++++oooooooo....oooo....oooo..oo....oooo....oo..ooooooooooooXX",
"@@++++oooooooo....oooo....oooo..oo....oooo....oo..ooooooooooooXX",
"@@++++oooooooo....oooo....oooo..oo....oooo....oo..ooooooooooooXX",
"@@++++oooooooo....oooo....oooo..oo....oooo....oo..ooooooooooooXX",
"@@++++++++OOOO..oo++++oooo++++++++++++oooo++++  oo++++OOOOooooXX",
"@@++++++++OOOO..oo++++oooo++++++++++++oooo++++  oo++++OOOOooooXX",
"@@++++++++OOOO..oo++++oooo++++++++++++oooo++++  oo++++OOOOooooXX",
"@@++++++++OOOO..oo++++oooo++++++++++++oooo++++  oo++++OOOOooooXX",
"@@++++++++OOOO....oooo++++OOOOOOOOOOOO++++oooo  ..++++OOOOooooXX",
"@@++++++++OOOO....oooo++++OOOOOOOOOOOO++++oooo  ..++++OOOOooooXX",
"@@++++OOOO++++..oo++++OOOOOOOOOOOOOOOOOOOO++++oo..OOOO++++ooooXX",
"@@++++OOOO++++..oo++++OOOOOOOOOOOOOOOOOOOO++++oo..OOOO++++ooooXX",
"@@++++oooooooo..++@@@@@@@@@@@@@@@@@@@@@@@@@@@@++..ooooooooooooXX",
"@@++++oooooooo..++@@@@@@@@@@@@@@@@@@@@@@@@@@@@++..ooooooooooooXX",
"@@++++oooooooo..++@@@@@@@@@@@@@@@@@@@@@@@@@@@@++..ooooooooooooXX",
"@@++++oooooooo..++@@@@@@@@@@@@@@@@@@@@@@@@@@@@++..ooooooooooooXX",
"@@++++....oooo..oooooooooooooooooooooooooooooooo..XXXXooooooooXX",
"@@++++....oooo..oooooooooooooooooooooooooooooooo..XXXXooooooooXX",
"@@++++....oooo..oooooooooooooooooooooooooooooooo..XXXXooooooooXX",
"@@++++....oooo..oooooooooooooooooooooooooooooooo..XXXXooooooooXX",
"XXooooooooooooooooooooooooooooooooooooooooooooooooooooooooooooXX",
"XXooooooooooooooooooooooooooooooooooooooooooooooooooooooooooooXX",
"XXooooooooooooooooooooooooooooooooooooooooooooooooooooooooooooXX",
"XXooooooooooooooooooooooooooooooooooooooooooooooooooooooooooooXX",
"XXXXXXXXXXXXXXXXXXXXXXXXXXXXXXXXXXXXXXXXXXXXXXXXXXXXXXXXXXXXXXXX",
"XXXXXXXXXXXXXXXXXXXXXXXXXXXXXXXXXXXXXXXXXXXXXXXXXXXXXXXXXXXXXXXX"
};
