/* XPM */
static char *b1ee3e537c644180e6a785f13f776951JixNDLgwJN6rkuYP[] = {
/* columns rows colors chars-per-pixel */
"64 64 6 1 ",
"  c #18215D",
". c #503197",
"X c #E17CB7",
"o c #BF53C9",
"O c #EFAAA5",
"+ c white",
/* pixels */
"OOOOOOOOOOOOOOOOOOOOOOOOOOOOOOOOOOOOOOOOOOOOOOOOOOOOOOOOOOOO    ",
"OOOOOOOOOOOOOOOOOOOOOOOOOOOOOOOOOOOOOOOOOOOOOOOOOOOOOOOOOOOO    ",
"OOOOOOOOOOOOOOOOOOOOOOOOOOOOOOOOOOOOOOOOOOOOOOOOOOOOOOOOOOOO    ",
"OOOOOOOOOOOOOOOOOOOOOOOOOOOOOOOOOOOOOOOOOOOOOOOOOOOOOOOOOOOO    ",
"OOOO........oooooooooooooooooooooooooooooooooooooooo........    ",
"OOOO........oooooooooooooooooooooooooooooooooooooooo........    ",
"OOOO........oooooooooooooooooooooooooooooooooooooooo........    ",
"OOOO........oooooooooooooooooooooooooooooooooooooooo........    ",
"OOOO....XXXXooooooooooooooooooooooooooooooooooooooooXXXX....    ",
"OOOO....XXXXooooooooooooooooooooooooooooooooooooooooXXXX....    ",
"OOOO....XXXXoooooooooooooooo+++++++oooooooooooooooooXXXX....    ",
"OOOO....XXXXoooooooooooooo+++++++++++oooooooooooooooXXXX....    ",
"OOOOoooooooooooooooooooo++++ooooooo++++ooooooooooooooooooooo    ",
"OOOOooooooooooooooooooo+++ooooooooooo+++oooooooooooooooooooo    ",
"OOOOoooooooooooooooooo+++ooooooooooooo+++ooooooooooooooooooo    ",
"OOOOooooooooooooooooo+++ooooooooooooooo+++oooooooooooooooooo    ",
"OOOOooooooooooooooooo++oooo++oooooo++ooo++oooooooooooooooooo    ",
"OOOOoooooooooooooooo+++oooo++oooooo++ooo+++ooooooooooooooooo    ",
"OOOOoooooooooooooooo++ooooooooooooooooooo++ooooooooooooooooo    ",
"OOOOoooooooooooooooo++ooooooooooooooooooo++ooooooooooooooooo    ",
"OOOOoooooooooooooooo++ooo++ooooooo+++oooo++ooooooooooooooooo    ",
"OOOOoooooooooooooooo++ooo++ooooooo+++oooo++ooooooooooooooooo    ",
"OOOOoooooooooooooooo++ooo+++oooooo+++oooo++ooooooooooooooooo    ",
"OOOOoooooooooooooooo++ooo++++oooo+++ooooo++ooooooooooooooooo    ",
"OOOOoooooooooooooooo+++ooo+++++oo+++oooo+++ooooooooooooooooo    ",
"OOOOooooooooooooooooo++oooo++++++++ooooo++oooooooooooooooooo    ",
"OOOOooooooooooooooooo+++ooooo++++++oooo+++oooooooooooooooooo    ",
"OOOOoooooooooooooooooo+++ooooooooooooo+++ooooooooooooooooooo    ",
"OOOOooooooooooooooooooo+++ooooooooooo+++oooooooooooooooooooo    ",
"OOOOoooooooooooooooooooo++++ooooooo++++ooooooooooooooooooooo    ",
"OOOOoooooooooooooooooooooo+++++++++++ooooooooooooooooooooooo    ",
"OOOOoooooooooooooooooooooooo+++++++ooooooooooooooooooooooooo    ",
"OOOOoooooooooooooooooooooooooo++oooooooooooooooooooooooooooo    ",
"OOOOoooooooooooooooooooooooooo++oooooooooooooooooooooooooooo    ",
"OOOOoooooooooooooooooooooooooo++oooooooooooooooooooooooooooo    ",
"OOOOoooooooooooooooooooooooooo++oooooooooooooooooooooooooooo    ",
"OOOOoooooooooooooooooooooooooo++oooooooooooooooooooooooooooo    ",
"OOOOoooooooooooooooooooooooooo+++ooooooooooooooooooooooooooo    ",
"OOOOooooooo++++++++++++++++++++++++++++++++++++ooooooooooooo    ",
"OOOOooooooo++++++++++++++++++++++++++++++++++++ooooooooooooo    ",
"OOOOoooooooooooooooooooooooooo++oooooooooooooooooooooooooooo    ",
"OOOOoooooooooooooooooooooooooo++oooooooooooooooooooooooooooo    ",
"OOOOoooooooooooooooooooooooooo++oooooooooooooooooooooooooooo    ",
"OOOOoooooooooooooooooooooooooo++oooooooooooooooooooooooooooo    ",
"OOOOoooooooooooooooooooooooooo++oooooooooooooooooooooooooooo    ",
"OOOOoooooooooooooooooooooooooo++oooooooooooooooooooooooooooo    ",
"OOOOoooooooooooooooooooooooooo++oooooooooooooooooooooooooooo    ",
"OOOOooooooooooooooooooooooooo++++ooooooooooooooooooooooooooo    ",
"OOOOoooooooooooooooooooooooo++++++oooooooooooooooooooooooooo    ",
"OOOOooooooooooooooooooooooo++++o++++oooooooooooooooooooooooo    ",
"OOOOooooooooooooooooooooo++++oooo+++++oooooooooooooooooooooo    ",
"OOOOooooooooooooooooooo+++++ooooooo++++ooooooooooooooooooooo    ",
"OOOO....XXXXoooooooo++++++oooooooooo++++ooooooooooooXXXX....    ",
"OOOO....XXXXooooo+++++++oooooooooooooo++++ooooooooooXXXX....    ",
"OOOO....XXXXooooo++++oooooooooooooooooo+++ooooooooooXXXX....    ",
"OOOO....XXXXoooooooooooooooooooooooooooo++ooooooooooXXXX....    ",
"OOOO........oooooooooooooooooooooooooooooooooooooooo........    ",
"OOOO........oooooooooooooooooooooooooooooooooooooooo........    ",
"OOOO........oooooooooooooooooooooooooooooooooooooooo........    ",
"OOOO........oooooooooooooooooooooooooooooooooooooooo........    ",
"                                                                ",
"                                                                ",
"                                                                ",
"                                                                "
};
