/* XPM */
static char *_a19ac63a1df41a3abde3010cd71fbe8bg5D6sipLgYXYLgb[] = {
/* columns rows colors chars-per-pixel */
"64 64 5 1 ",
"  c #18215D",
". c #503197",
"X c #E17CB7",
"o c #BF53C9",
"O c #EFAAA5",
/* pixels */
"OOOOOOOOOOOOOOOOOOOOOOOOOOOOOOOOOOOOOOOOOOOOOOOOOOOOOOOOOOOO    ",
"OOOOOOOOOOOOOOOOOOOOOOOOOOOOOOOOOOOOOOOOOOOOOOOOOOOOOOOOOOOO    ",
"OOOOOOOOOOOOOOOOOOOOOOOOOOOOOOOOOOOOOOOOOOOOOOOOOOOOOOOOOOOO    ",
"OOOOOOOOOOOOOOOOOOOOOOOOOOOOOOOOOOOOOOOOOOOOOOOOOOOOOOOOOOOO    ",
"OOOO........oooooooooooooooooooooooooooooooooooooooo........    ",
"OOOO........oooooooooooooooooooooooooooooooooooooooo........    ",
"OOOO........oooooooooooooooooooooooooooooooooooooooo........    ",
"OOOO........oooooooooooooooooooooooooooooooooooooooo........    ",
"OOOO....XXXXooooooooooooooooooooooooooooooooooooooooXXXX....    ",
"OOOO....XXXXooooooooooooooooooooooooooooooooooooooooXXXX....    ",
"OOOO....XXXXooooooooooooooooooooooooooooooooooooooooXXXX....    ",
"OOOO....XXXXooooooooooooooooooooooooooooooooooooooooXXXX....    ",
"OOOOoooooooooooooooooooooooooooooooooooooooooooooooooooooooo    ",
"OOOOoooooooooooooooooooooooooooooooooooooooooooooooooooooooo    ",
"OOOOoooooooooooooooooooooooooooooooooooooooooooooooooooooooo    ",
"OOOOoooooooooooooooooooooooooooooooooooooooooooooooooooooooo    ",
"OOOOoooooooooooooooooooooooooooooooooooooooooooooooooooooooo    ",
"OOOOoooooooooooooooooooooooooooooooooooooooooooooooooooooooo    ",
"OOOOoooooooooooooooooooooooooooooooooooooooooooooooooooooooo    ",
"OOOOoooooooooooooooooooooooooooooooooooooooooooooooooooooooo    ",
"OOOOoooooooooooooooooooooooooooooooooooooooooooooooooooooooo    ",
"OOOOoooooooooooooooooooooooooooooooooooooooooooooooooooooooo    ",
"OOOOoooooooooooooooooooooooooooooooooooooooooooooooooooooooo    ",
"OOOOoooooooooooooooooooooooooooooooooooooooooooooooooooooooo    ",
"OOOOoooooooooooooooooooooooooooooooooooooooooooooooooooooooo    ",
"OOOOoooooooooooooooooooooooooooooooooooooooooooooooooooooooo    ",
"OOOOoooooooooooooooooooooooooooooooooooooooooooooooooooooooo    ",
"OOOOoooooooooooooooooooooooooooooooooooooooooooooooooooooooo    ",
"OOOOoooooooooooooooooooooooooooooooooooooooooooooooooooooooo    ",
"OOOOoooooooooooooooooooooooooooooooooooooooooooooooooooooooo    ",
"OOOOoooooooooooooooooooooooooooooooooooooooooooooooooooooooo    ",
"OOOOoooooooooooooooooooooooooooooooooooooooooooooooooooooooo    ",
"OOOOoooooooooooooooooooooooooooooooooooooooooooooooooooooooo    ",
"OOOOoooooooooooooooooooooooooooooooooooooooooooooooooooooooo    ",
"OOOOoooooooooooooooooooooooooooooooooooooooooooooooooooooooo    ",
"OOOOoooooooooooooooooooooooooooooooooooooooooooooooooooooooo    ",
"OOOOoooooooooooooooooooooooooooooooooooooooooooooooooooooooo    ",
"OOOOoooooooooooooooooooooooooooooooooooooooooooooooooooooooo    ",
"OOOOoooooooooooooooooooooooooooooooooooooooooooooooooooooooo    ",
"OOOOoooooooooooooooooooooooooooooooooooooooooooooooooooooooo    ",
"OOOOoooooooooooooooooooooooooooooooooooooooooooooooooooooooo    ",
"OOOOoooooooooooooooooooooooooooooooooooooooooooooooooooooooo    ",
"OOOOoooooooooooooooooooooooooooooooooooooooooooooooooooooooo    ",
"OOOOoooooooooooooooooooooooooooooooooooooooooooooooooooooooo    ",
"OOOOoooooooooooooooooooooooooooooooooooooooooooooooooooooooo    ",
"OOOOoooooooooooooooooooooooooooooooooooooooooooooooooooooooo    ",
"OOOOoooooooooooooooooooooooooooooooooooooooooooooooooooooooo    ",
"OOOOoooooooooooooooooooooooooooooooooooooooooooooooooooooooo    ",
"OOOOoooooooooooooooooooooooooooooooooooooooooooooooooooooooo    ",
"OOOOoooooooooooooooooooooooooooooooooooooooooooooooooooooooo    ",
"OOOOoooooooooooooooooooooooooooooooooooooooooooooooooooooooo    ",
"OOOOoooooooooooooooooooooooooooooooooooooooooooooooooooooooo    ",
"OOOO....XXXXooooooooooooooooooooooooooooooooooooooooXXXX....    ",
"OOOO....XXXXooooooooooooooooooooooooooooooooooooooooXXXX....    ",
"OOOO....XXXXooooooooooooooooooooooooooooooooooooooooXXXX....    ",
"OOOO....XXXXooooooooooooooooooooooooooooooooooooooooXXXX....    ",
"OOOO........oooooooooooooooooooooooooooooooooooooooo........    ",
"OOOO........oooooooooooooooooooooooooooooooooooooooo........    ",
"OOOO........oooooooooooooooooooooooooooooooooooooooo........    ",
"OOOO........oooooooooooooooooooooooooooooooooooooooo........    ",
"                                                                ",
"                                                                ",
"                                                                ",
"                                                                "
};
